<?xml version="1.0" encoding="iso-8859-1"?>
<!-- Generator: Adobe Illustrator 19.0.0, SVG Export Plug-In . SVG Version: 6.00 Build 0)  -->
<svg version="1.1" id="Layer_1" xmlns="http://www.w3.org/2000/svg" xmlns:xlink="http://www.w3.org/1999/xlink" x="0px" y="0px"
	 viewBox="0 0 512 512" style="enable-background:new 0 0 512 512;" xml:space="preserve">
<path style="fill:#5ECC66;" d="M224.966,361.315h-10.825c-4.279,0-7.97-3.014-8.822-7.21c-2.056-10.175-6.028-19.744-11.792-28.442
	c-2.364-3.567-1.88-8.303,1.142-11.33l7.662-7.662c3.497-3.497,3.488-9.2-0.018-12.705c-1.713-1.718-3.972-2.658-6.362-2.658
	c-0.009,0-0.009,0-0.009,0c-2.381,0-4.631,0.936-6.326,2.636l-7.671,7.666c-3.032,3.027-7.776,3.501-11.326,1.133
	c-8.699-5.755-18.268-9.723-28.442-11.787c-4.2-0.848-7.214-4.539-7.214-8.818v-10.825c0-4.947-4.033-8.971-8.998-8.971
	c-5.044,0-8.998,3.941-8.998,8.971v10.825c0,4.279-3.014,7.97-7.214,8.817c-10.175,2.065-19.744,6.032-28.442,11.787
	c-3.55,2.368-8.295,1.894-11.326-1.133l-7.662-7.658c-3.515-3.515-9.209-3.493-12.705,0.013c-1.713,1.718-2.662,3.98-2.654,6.37
	c0,2.385,0.931,4.635,2.636,6.331l7.653,7.671c3.023,3.023,3.497,7.759,1.142,11.322c-5.755,8.703-9.727,18.276-11.783,28.447
	c-0.852,4.196-4.543,7.21-8.822,7.21H26.967c-4.947,0-8.971,4.037-8.971,8.998c0,4.96,4.024,8.998,8.971,8.998h10.825
	c4.279,0,7.97,3.014,8.822,7.21c2.056,10.171,6.028,19.744,11.783,28.447c2.355,3.563,1.88,8.299-1.142,11.322l-7.653,7.662
	c-3.497,3.501-3.488,9.204,0.018,12.71c1.713,1.718,3.972,2.658,6.362,2.658c0,0,0,0,0.009,0c2.381,0,4.631-0.94,6.335-2.64
	l7.662-7.662c1.74-1.735,4.042-2.632,6.362-2.632c1.722,0,3.453,0.492,4.964,1.498c8.699,5.755,18.268,9.723,28.442,11.787
	c4.2,0.848,7.214,4.538,7.214,8.817v10.825c0,4.947,4.033,8.971,8.998,8.971c5.044,0,8.998-3.941,8.998-8.971v-10.825
	c0-4.279,3.014-7.97,7.214-8.817c10.175-2.065,19.744-6.032,28.442-11.787c3.55-2.359,8.295-1.889,11.326,1.133l7.662,7.658
	c3.506,3.51,9.2,3.488,12.705-0.013c1.713-1.718,2.662-3.98,2.654-6.37c0-2.385-0.931-4.635-2.636-6.331l-7.662-7.666
	c-3.023-3.027-3.506-7.763-1.142-11.33c5.764-8.699,9.736-18.268,11.792-28.442c0.852-4.196,4.543-7.21,8.822-7.21h10.825
	c4.947,0,8.971-4.037,8.971-8.998C233.937,365.352,229.913,361.315,224.966,361.315z M125.966,406.303
	c-19.849,0-35.99-16.146-35.99-35.99c0-19.845,16.141-35.99,35.99-35.99s35.99,16.146,35.99,35.99
	C161.957,390.157,145.815,406.303,125.966,406.303z"/>
<path style="fill:#7EA1DF;" d="M233.744,125.647c0.184-4.279,3.357-7.833,7.583-8.501l9.05-1.432
	c1.634-0.259,3.067-1.142,4.042-2.482c0.975-1.349,1.371-2.992,1.116-4.635c-0.545-3.458-3.664-5.782-7.109-5.184l-9.05,1.432
	c-4.147,0.681-8.33-1.722-9.832-5.738c-3.032-8.097-7.513-15.421-13.338-21.769c-2.891-3.15-3.163-7.904-0.65-11.366l5.377-7.412
	c0.975-1.344,1.371-2.979,1.116-4.613c-0.264-1.647-1.151-3.093-2.495-4.073c-1.362-0.989-2.987-1.406-4.648-1.133
	c-1.626,0.259-3.058,1.142-4.033,2.487l-5.395,7.416c-2.513,3.466-7.109,4.679-11.01,2.895c-7.838-3.576-16.194-5.575-24.823-5.949
	c-4.279-0.184-7.829-3.357-8.497-7.583l-1.432-9.055c-0.545-3.37-3.734-5.724-7.126-5.153c-1.661,0.264-3.11,1.147-4.086,2.487
	c-0.967,1.331-1.353,2.97-1.098,4.609l1.432,9.063c0.677,4.226-1.731,8.339-5.738,9.837c-8.084,3.018-15.412,7.504-21.765,13.329
	c-3.154,2.9-7.908,3.172-11.37,0.65l-7.416-5.386c-2.742-1.995-6.66-1.388-8.681,1.397c-0.984,1.358-1.388,3.005-1.133,4.639
	c0.264,1.626,1.142,3.062,2.495,4.042l7.416,5.386c3.462,2.517,4.674,7.126,2.891,11.018c-3.576,7.829-5.58,16.176-5.949,24.814
	c-0.184,4.279-3.357,7.833-7.583,8.501l-9.059,1.432c-3.374,0.536-5.685,3.734-5.149,7.13c0.536,3.44,3.629,5.751,7.1,5.175
	l9.059-1.437c4.2-0.646,8.339,1.731,9.832,5.747c3.014,8.079,7.504,15.403,13.338,21.765c2.891,3.154,3.163,7.908,0.642,11.37
	l-5.386,7.407c-2.003,2.768-1.38,6.665,1.397,8.681c2.838,2.056,6.643,1.458,8.69-1.358l5.386-7.412
	c1.731-2.39,4.472-3.708,7.275-3.708c1.257,0,2.531,0.264,3.734,0.813c7.838,3.572,16.185,5.575,24.823,5.953
	c4.27,0.184,7.82,3.352,8.488,7.574l1.441,9.05c0.264,1.643,1.142,3.08,2.487,4.055c1.336,0.971,2.961,1.375,4.639,1.107
	c3.444-0.545,5.72-3.669,5.184-7.109l-1.432-9.046c-0.668-4.222,1.722-8.334,5.729-9.832c8.101-3.032,15.43-7.517,21.773-13.334
	c3.163-2.9,7.926-3.159,11.37-0.65l7.407,5.382c1.327,0.967,2.979,1.34,4.604,1.107c1.652-0.264,3.093-1.147,4.068-2.495
	c0.993-1.366,1.397-3.014,1.142-4.648c-0.264-1.626-1.151-3.062-2.495-4.046l-7.407-5.377c-3.462-2.513-4.674-7.117-2.9-11.01
	C231.372,142.618,233.375,134.262,233.744,125.647z M192.429,141.375l-0.009,0.005c-6.221,8.563-15.948,13.114-25.798,13.114
	c-6.493,0-13.031-1.973-18.672-6.067c-6.88-5-11.405-12.38-12.732-20.781c-1.327-8.396,0.694-16.813,5.694-23.693
	c10.307-14.195,30.253-17.367,44.469-7.043C199.581,107.225,202.736,127.171,192.429,141.375z"/>
<path style="fill:#D26CBA;" d="M493.699,242.448c-1.344-5.412-6.616-8.567-12.011-7.245l-11.045,2.755
	c-4.165,1.032-8.453-0.993-10.298-4.859c-4.736-9.925-11.256-18.733-19.392-26.184c-3.154-2.891-3.84-7.6-1.634-11.269l5.87-9.766
	c1.362-2.263,1.757-4.925,1.116-7.495c-0.65-2.574-2.249-4.74-4.525-6.107c-2.293-1.38-4.973-1.788-7.539-1.151
	c-2.557,0.637-4.719,2.245-6.08,4.521l-5.87,9.771c-2.214,3.669-6.696,5.281-10.72,3.844c-10.377-3.682-21.202-5.32-32.212-4.824
	c-4.218,0.101-8.093-2.662-9.129-6.814l-2.75-11.049c-1.318-5.294-6.722-8.541-12.029-7.205c-5.316,1.327-8.576,6.717-7.249,12.016
	l2.75,11.045c1.046,4.152-0.993,8.462-4.859,10.302c-9.911,4.723-18.724,11.242-26.176,19.379
	c-2.891,3.159-7.592,3.848-11.265,1.639l-9.771-5.865c-2.258-1.353-4.921-1.762-7.495-1.116c-2.583,0.642-4.754,2.249-6.116,4.525
	c-1.38,2.293-1.793,4.969-1.151,7.53c0.642,2.557,2.249,4.719,4.525,6.085l9.771,5.87c3.673,2.206,5.281,6.691,3.849,10.729
	c-3.69,10.377-5.307,21.211-4.824,32.203c0.193,4.27-2.662,8.088-6.81,9.125l-11.054,2.759c-2.566,0.642-4.727,2.241-6.089,4.512
	c-1.362,2.271-1.766,4.943-1.116,7.517c1.336,5.399,6.581,8.593,12.02,7.249l11.036-2.759c4.2-1.028,8.462,0.997,10.298,4.859
	c4.736,9.925,11.256,18.733,19.392,26.184c3.154,2.891,3.84,7.6,1.634,11.269l-5.87,9.766c-1.362,2.263-1.757,4.925-1.116,7.495
	c0.65,2.574,2.249,4.74,4.525,6.107c2.311,1.384,4.991,1.801,7.539,1.151c2.557-0.637,4.719-2.245,6.08-4.521l5.861-9.762
	c2.206-3.677,6.704-5.281,10.72-3.853c10.395,3.682,21.246,5.325,32.221,4.824c0.132-0.004,0.264-0.009,0.395-0.009
	c4.112,0,7.724,2.798,8.734,6.818l2.75,11.049c0.642,2.566,2.249,4.727,4.516,6.089c2.276,1.366,4.956,1.771,7.513,1.12
	c2.601-0.65,4.78-2.254,6.142-4.516c1.353-2.258,1.748-4.916,1.107-7.495l-2.759-11.054c-1.028-4.152,1.002-8.457,4.868-10.298
	c9.911-4.723,18.724-11.242,26.176-19.379c2.9-3.154,7.609-3.831,11.265-1.639l9.771,5.87c2.267,1.366,4.912,1.762,7.495,1.111
	c2.574-0.642,4.745-2.249,6.107-4.521c1.388-2.302,1.793-4.978,1.151-7.539c-0.633-2.553-2.241-4.714-4.516-6.08l-9.771-5.865
	c-3.673-2.206-5.281-6.691-3.849-10.724c3.69-10.381,5.307-21.22,4.824-32.212c-0.193-4.275,2.662-8.093,6.81-9.125l11.054-2.755
	C491.792,253.159,495.025,247.76,493.699,242.448z M392.08,306.319c-3.023,0.756-6.063,1.116-9.041,1.116
	c-16.765,0-32.045-11.37-36.289-28.35c-2.416-9.692-0.914-19.744,4.235-28.306c5.14-8.563,13.312-14.608,23.004-17.024
	c9.709-2.425,19.761-0.909,28.302,4.231c8.558,5.145,14.604,13.312,17.029,23.004C424.301,280.995,412.088,301.328,392.08,306.319z"
	/>
<g>
	<path style="fill:#314E55;" d="M125.966,334.322c-19.849,0-35.99,16.146-35.99,35.99c0,19.845,16.141,35.99,35.99,35.99
		s35.99-16.146,35.99-35.99C161.957,350.468,145.815,334.322,125.966,334.322z M125.966,388.308c-9.92,0-17.995-8.071-17.995-17.995
		c0-9.925,8.075-17.995,17.995-17.995s17.995,8.071,17.995,17.995C143.962,380.237,135.887,388.308,125.966,388.308z"/>
	<path style="fill:#314E55;" d="M224.966,343.32h-3.752c-2.091-7.416-5.044-14.529-8.822-21.268l2.662-2.658
		c10.518-10.513,10.509-27.63-0.018-38.152c-5.114-5.114-11.889-7.93-19.085-7.93c-0.009,0-0.018,0-0.018,0
		c-7.196,0.004-13.962,2.816-19.05,7.908l-2.662,2.662c-6.731-3.774-13.848-6.726-21.264-8.817v-3.752
		c0-14.871-12.108-26.966-26.993-26.966s-26.993,12.095-26.993,26.966v3.752c-7.416,2.091-14.533,5.044-21.264,8.817l-2.662-2.658
		c-10.518-10.513-27.634-10.504-38.152,0.018c-5.114,5.118-7.934,11.906-7.926,19.102c0,7.192,2.812,13.958,7.908,19.045
		l2.654,2.662c-3.77,6.739-6.722,13.857-8.813,21.268h-3.752C12.099,343.32,0,355.428,0,370.313s12.099,26.993,26.966,26.993h3.752
		c2.091,7.412,5.044,14.529,8.813,21.268l-2.654,2.658c-10.518,10.513-10.509,27.63,0.018,38.152
		c5.114,5.114,11.889,7.93,19.085,7.93c0.009,0,0.009,0,0.018,0c7.187-0.005,13.953-2.812,19.05-7.908l2.662-2.662
		c6.731,3.774,13.848,6.726,21.264,8.817v3.752c0,14.871,12.108,26.966,26.993,26.966s26.993-12.095,26.993-26.966v-3.752
		c7.416-2.091,14.533-5.044,21.264-8.817l2.662,2.658c10.518,10.518,27.634,10.5,38.152-0.018
		c5.114-5.118,7.934-11.906,7.926-19.102c0-7.192-2.812-13.958-7.908-19.05l-2.662-2.658c3.778-6.739,6.731-13.852,8.822-21.268
		h3.752c14.867,0,26.966-12.108,26.966-26.993S239.833,343.32,224.966,343.32z M224.966,379.31h-10.825
		c-4.279,0-7.97,3.014-8.822,7.21c-2.056,10.175-6.028,19.744-11.792,28.442c-2.364,3.567-1.88,8.303,1.142,11.33l7.662,7.666
		c1.705,1.696,2.636,3.945,2.636,6.331c0.009,2.39-0.94,4.653-2.654,6.37c-3.506,3.501-9.2,3.523-12.705,0.013l-7.662-7.658
		c-3.032-3.023-7.776-3.493-11.326-1.133c-8.699,5.755-18.268,9.723-28.442,11.787c-4.2,0.848-7.214,4.538-7.214,8.817v10.825
		c0,5.03-3.954,8.971-8.998,8.971c-4.964,0-8.998-4.024-8.998-8.971v-10.825c0-4.279-3.014-7.97-7.214-8.817
		c-10.175-2.065-19.744-6.032-28.442-11.787c-1.511-1.006-3.242-1.498-4.964-1.498c-2.32,0-4.622,0.896-6.362,2.632l-7.662,7.662
		c-1.705,1.7-3.954,2.64-6.335,2.64c-0.009,0-0.009,0-0.009,0c-2.39,0-4.648-0.94-6.362-2.658c-3.506-3.506-3.515-9.209-0.018-12.71
		l7.653-7.662c3.023-3.023,3.497-7.759,1.142-11.322c-5.755-8.703-9.727-18.276-11.783-28.447c-0.852-4.196-4.543-7.21-8.822-7.21
		H26.967c-4.947,0-8.971-4.037-8.971-8.998c0-4.96,4.024-8.998,8.971-8.998h10.825c4.279,0,7.97-3.014,8.822-7.21
		c2.056-10.171,6.028-19.744,11.783-28.447c2.355-3.563,1.88-8.299-1.142-11.322l-7.653-7.671c-1.705-1.696-2.636-3.945-2.636-6.331
		c-0.009-2.39,0.94-4.653,2.654-6.37c3.497-3.506,9.191-3.528,12.705-0.013l7.662,7.658c3.032,3.027,7.776,3.501,11.326,1.133
		c8.699-5.755,18.268-9.723,28.442-11.787c4.2-0.848,7.214-4.538,7.214-8.817v-10.825c0-5.03,3.954-8.971,8.998-8.971
		c4.964,0,8.998,4.024,8.998,8.971v10.825c0,4.279,3.014,7.97,7.214,8.817c10.175,2.065,19.744,6.032,28.442,11.787
		c3.55,2.368,8.295,1.894,11.326-1.133l7.671-7.666c1.696-1.7,3.945-2.636,6.326-2.636c0,0,0,0,0.009,0
		c2.39,0,4.648,0.94,6.362,2.658c3.506,3.506,3.515,9.209,0.018,12.705l-7.662,7.662c-3.023,3.027-3.506,7.763-1.142,11.33
		c5.764,8.699,9.736,18.268,11.792,28.443c0.852,4.196,4.543,7.21,8.822,7.21h10.825c4.947,0,8.971,4.037,8.971,8.998
		S229.913,379.31,224.966,379.31z"/>
	<path style="fill:#314E55;" d="M402.291,237.985c-8.541-5.14-18.593-6.656-28.302-4.231c-9.692,2.416-17.863,8.462-23.004,17.024
		c-5.149,8.563-6.651,18.615-4.235,28.306c4.244,16.98,19.524,28.35,36.289,28.35c2.979,0,6.019-0.36,9.041-1.116
		c20.007-4.991,32.221-25.323,27.239-45.331C416.894,251.297,410.849,243.129,402.291,237.985z M399.663,280.029
		c-2.671,4.437-6.906,7.574-11.941,8.831c-10.36,2.592-20.912-3.752-23.504-14.133c-1.257-5.026-0.474-10.237,2.188-14.678
		c2.671-4.442,6.906-7.578,11.941-8.835c1.564-0.391,3.154-0.584,4.727-0.584c3.471,0,6.889,0.94,9.947,2.777
		c4.446,2.671,7.583,6.911,8.831,11.941C403.108,270.372,402.335,275.587,399.663,280.029z"/>
	<path style="fill:#314E55;" d="M490.852,271.941c14.929-3.73,24.04-18.913,20.315-33.851
		c-3.725-14.946-18.918-24.058-33.838-20.346l-4.165,1.041c-4.103-7.231-9.041-13.901-14.77-19.946l2.223-3.695
		c3.831-6.384,4.947-13.887,3.146-21.123c-1.81-7.236-6.326-13.334-12.714-17.169c-6.423-3.866-13.909-5.004-21.167-3.185
		c-7.214,1.801-13.303,6.318-17.152,12.71l-2.214,3.695c-8.022-2.214-16.229-3.444-24.532-3.673l-1.046-4.183
		c-3.725-14.916-18.883-24.054-33.846-20.306c-14.937,3.725-24.075,18.9-20.35,33.829l1.037,4.174
		c-7.223,4.099-13.892,9.037-19.937,14.762l-3.69-2.214c-6.388-3.84-13.883-4.973-21.132-3.15
		c-7.231,1.806-13.338,6.322-17.178,12.714c-3.857,6.423-4.982,13.94-3.172,21.167c1.801,7.214,6.318,13.303,12.714,17.147
		l3.69,2.214c-2.223,8.018-3.453,16.229-3.673,24.537l-4.183,1.046c-7.223,1.801-13.321,6.313-17.16,12.71
		c-3.84,6.392-4.956,13.901-3.154,21.136c3.725,14.942,18.927,24.071,33.838,20.35l4.174-1.041
		c4.095,7.227,9.033,13.896,14.762,19.941l-2.223,3.695c-3.831,6.384-4.947,13.887-3.146,21.123
		c1.81,7.236,6.326,13.334,12.714,17.169c6.423,3.862,13.918,4.995,21.167,3.185c7.214-1.801,13.303-6.318,17.152-12.719
		l2.214-3.686c8.022,2.214,16.229,3.444,24.541,3.673l1.037,4.174c1.801,7.231,6.318,13.325,12.714,17.165
		c4.393,2.64,9.323,3.994,14.322,3.994c2.267,0,4.551-0.281,6.81-0.844c7.267-1.81,13.382-6.326,17.213-12.714
		c3.831-6.379,4.938-13.879,3.137-21.11l-1.046-4.174c7.231-4.099,13.901-9.041,19.946-14.766l3.699,2.223
		c6.379,3.835,13.874,4.938,21.123,3.141c7.231-1.81,13.329-6.326,17.16-12.71c3.866-6.419,5-13.94,3.19-21.172
		c-1.801-7.214-6.318-13.303-12.714-17.147l-3.69-2.214c2.223-8.018,3.453-16.225,3.673-24.537L490.852,271.941z M475.44,257.236
		c-4.147,1.032-7.003,4.85-6.81,9.125c0.483,10.992-1.134,21.831-4.824,32.212c-1.432,4.033,0.176,8.519,3.849,10.724l9.771,5.865
		c2.276,1.366,3.884,3.528,4.516,6.08c0.642,2.561,0.237,5.237-1.151,7.539c-1.362,2.271-3.532,3.879-6.107,4.521
		c-2.583,0.65-5.228,0.255-7.495-1.111l-9.771-5.87c-3.655-2.192-8.365-1.516-11.265,1.639
		c-7.451,8.137-16.264,14.656-26.176,19.379c-3.866,1.841-5.896,6.146-4.868,10.298l2.759,11.054
		c0.642,2.579,0.246,5.237-1.107,7.495c-1.362,2.263-3.541,3.866-6.142,4.516c-2.557,0.65-5.237,0.246-7.513-1.12
		c-2.267-1.362-3.875-3.523-4.516-6.089l-2.75-11.049c-1.01-4.02-4.622-6.818-8.734-6.818c-0.132,0-0.264,0.004-0.395,0.009
		c-10.975,0.501-21.826-1.142-32.221-4.824c-4.016-1.428-8.514,0.176-10.72,3.853l-5.861,9.762c-1.362,2.276-3.523,3.884-6.08,4.521
		c-2.548,0.65-5.228,0.233-7.539-1.151c-2.276-1.366-3.875-3.532-4.525-6.107c-0.642-2.57-0.246-5.233,1.116-7.495l5.87-9.766
		c2.206-3.669,1.52-8.378-1.634-11.269c-8.137-7.451-14.656-16.26-19.392-26.184c-1.836-3.862-6.098-5.887-10.298-4.859
		l-11.036,2.759c-5.439,1.344-10.685-1.85-12.02-7.249c-0.65-2.574-0.246-5.246,1.116-7.517c1.362-2.271,3.523-3.871,6.089-4.512
		l11.054-2.759c4.147-1.037,7.003-4.855,6.81-9.125c-0.483-10.992,1.133-21.826,4.824-32.203c1.432-4.037-0.176-8.523-3.849-10.729
		l-9.771-5.87c-2.276-1.366-3.884-3.528-4.525-6.085c-0.642-2.561-0.229-5.237,1.151-7.53c1.362-2.276,3.532-3.884,6.116-4.525
		c2.574-0.646,5.237-0.237,7.495,1.116l9.771,5.865c3.673,2.21,8.374,1.52,11.265-1.639c7.451-8.137,16.264-14.656,26.176-19.379
		c3.866-1.841,5.905-6.151,4.859-10.302l-2.75-11.045c-1.327-5.298,1.933-10.689,7.249-12.016
		c5.307-1.336,10.711,1.911,12.029,7.205l2.75,11.049c1.037,4.152,4.912,6.915,9.129,6.814c11.01-0.496,21.835,1.142,32.212,4.824
		c4.024,1.437,8.505-0.176,10.72-3.844l5.87-9.771c1.362-2.276,3.523-3.884,6.08-4.521c2.566-0.637,5.246-0.229,7.539,1.151
		c2.276,1.366,3.875,3.532,4.525,6.107c0.642,2.57,0.246,5.233-1.116,7.495l-5.87,9.766c-2.206,3.669-1.52,8.378,1.634,11.269
		c8.137,7.451,14.656,16.26,19.392,26.184c1.845,3.866,6.133,5.891,10.298,4.859l11.045-2.755
		c5.395-1.322,10.667,1.832,12.011,7.245c1.327,5.311-1.907,10.711-7.205,12.033L475.44,257.236z"/>
	<path style="fill:#314E55;" d="M185.382,96.91c-14.217-10.324-34.163-7.152-44.469,7.043c-5,6.88-7.021,15.298-5.694,23.693
		c1.327,8.4,5.852,15.781,12.732,20.781c5.641,4.095,12.178,6.067,18.672,6.067c9.85,0,19.577-4.551,25.798-13.114l0.009-0.005
		C202.736,127.171,199.581,107.225,185.382,96.91z M177.869,130.8c-4.481,6.168-13.154,7.557-19.34,3.067
		c-2.996-2.175-4.964-5.382-5.536-9.033c-0.58-3.651,0.299-7.311,2.469-10.302c2.706-3.725,6.933-5.703,11.221-5.703
		c2.821,0,5.667,0.861,8.119,2.64C180.971,115.951,182.351,124.623,177.869,130.8z"/>
	<path style="fill:#314E55;" d="M258.356,168.082c-1.01-6.366-4.446-11.972-9.683-15.777l-1.722-1.252
		c1.977-5.593,3.357-11.352,4.13-17.231l2.109-0.334c6.388-1.015,11.994-4.455,15.798-9.687c3.796-5.237,5.334-11.638,4.314-18.026
		c-2.091-13.198-14.577-22.235-27.687-20.139l-2.109,0.334c-2.557-5.36-5.65-10.412-9.261-15.113l1.248-1.718
		c3.805-5.224,5.342-11.62,4.323-18.008c-1.01-6.397-4.455-12.011-9.692-15.812c-5.263-3.827-11.686-5.391-18.03-4.349
		c-6.379,1.01-11.985,4.455-15.781,9.687l-1.257,1.727c-5.588-1.981-11.352-3.361-17.24-4.13l-0.334-2.122
		c-2.091-13.176-14.577-22.204-27.704-20.108c-6.414,1.019-12.038,4.459-15.834,9.692c-3.796,5.219-5.325,11.616-4.306,18
		l0.334,2.113c-5.36,2.553-10.412,5.646-15.113,9.257l-1.731-1.256c-10.781-7.842-25.956-5.43-33.811,5.369
		c-3.822,5.254-5.369,11.664-4.349,18.052c1.01,6.37,4.455,11.976,9.683,15.777l1.731,1.257c-1.977,5.584-3.365,11.339-4.13,17.226
		l-2.118,0.334c-13.171,2.087-22.195,14.52-20.113,27.718c2.091,13.193,14.568,22.226,27.687,20.139l2.118-0.338
		c2.548,5.356,5.641,10.408,9.252,15.109l-1.257,1.731c-7.838,10.794-5.421,25.965,5.377,33.816
		c10.816,7.851,25.974,5.452,33.82-5.338l1.257-1.731c5.588,1.981,11.352,3.365,17.231,4.134l0.343,2.104
		c1.002,6.388,4.446,11.998,9.683,15.803c4.174,3.032,9.103,4.622,14.173,4.622c1.274,0,2.566-0.101,3.848-0.303
		c13.189-2.087,22.222-14.507,20.139-27.691l-0.334-2.113c5.36-2.553,10.412-5.646,15.113-9.252l1.722,1.248
		c5.219,3.796,11.607,5.32,18.004,4.323c6.397-1.015,12.011-4.455,15.807-9.687C257.828,180.88,259.375,174.47,258.356,168.082z
		 M230.686,161.483l7.407,5.377c1.344,0.984,2.232,2.421,2.495,4.046c0.255,1.634-0.149,3.282-1.142,4.648
		c-0.975,1.349-2.416,2.232-4.068,2.495c-1.626,0.233-3.277-0.141-4.604-1.107l-7.407-5.382c-3.444-2.509-8.207-2.249-11.37,0.65
		c-6.344,5.817-13.672,10.302-21.773,13.334c-4.007,1.498-6.397,5.61-5.729,9.832l1.432,9.046c0.536,3.44-1.74,6.564-5.184,7.109
		c-1.678,0.268-3.304-0.136-4.639-1.107c-1.344-0.975-2.223-2.412-2.487-4.055l-1.441-9.05c-0.668-4.222-4.218-7.39-8.488-7.574
		c-8.637-0.378-16.985-2.381-24.823-5.953c-1.204-0.549-2.478-0.813-3.734-0.813c-2.803,0-5.544,1.318-7.275,3.708l-5.386,7.412
		c-2.047,2.816-5.852,3.414-8.69,1.358c-2.777-2.017-3.4-5.913-1.397-8.681l5.386-7.407c2.522-3.462,2.249-8.215-0.642-11.37
		c-5.834-6.362-10.324-13.685-13.338-21.765c-1.494-4.016-5.632-6.392-9.832-5.747l-9.059,1.437c-3.471,0.576-6.564-1.735-7.1-5.175
		c-0.536-3.396,1.775-6.594,5.149-7.13l9.059-1.432c4.226-0.668,7.398-4.222,7.583-8.501c0.369-8.637,2.372-16.985,5.949-24.814
		c1.784-3.893,0.571-8.501-2.891-11.018l-7.416-5.386c-1.353-0.98-2.232-2.416-2.495-4.042c-0.255-1.634,0.149-3.282,1.133-4.639
		c2.021-2.785,5.94-3.392,8.681-1.397l7.416,5.386c3.462,2.522,8.215,2.249,11.37-0.65c6.353-5.825,13.681-10.311,21.765-13.329
		c4.007-1.498,6.414-5.61,5.738-9.837l-1.432-9.063c-0.255-1.639,0.132-3.277,1.098-4.609c0.975-1.34,2.425-2.223,4.086-2.487
		c3.392-0.571,6.581,1.784,7.126,5.153l1.432,9.055c0.668,4.226,4.218,7.398,8.497,7.583c8.628,0.373,16.985,2.372,24.823,5.949
		c3.901,1.784,8.497,0.571,11.01-2.895l5.395-7.416c0.975-1.344,2.408-2.227,4.033-2.487c1.661-0.272,3.286,0.145,4.648,1.133
		c1.344,0.98,2.232,2.425,2.495,4.073c0.255,1.634-0.141,3.269-1.116,4.613l-5.377,7.412c-2.513,3.462-2.241,8.215,0.65,11.366
		c5.825,6.348,10.307,13.672,13.338,21.769c1.503,4.016,5.685,6.419,9.832,5.738l9.05-1.432c3.444-0.597,6.564,1.727,7.109,5.184
		c0.255,1.643-0.141,3.286-1.116,4.635c-0.975,1.34-2.408,2.223-4.042,2.482l-9.05,1.432c-4.226,0.668-7.398,4.222-7.583,8.501
		c-0.369,8.615-2.372,16.971-5.957,24.827C226.012,154.366,227.224,158.97,230.686,161.483z"/>
</g>
<g>
</g>
<g>
</g>
<g>
</g>
<g>
</g>
<g>
</g>
<g>
</g>
<g>
</g>
<g>
</g>
<g>
</g>
<g>
</g>
<g>
</g>
<g>
</g>
<g>
</g>
<g>
</g>
<g>
</g>
</svg>
